<mxfile host="65bd71144e">
    <diagram id="jfpVRWaQTJZDKXtEIbLV" name="Страница 1">
        <mxGraphModel dx="1551" dy="605" grid="0" gridSize="10" guides="1" tooltips="1" connect="1" arrows="1" fold="1" page="0" pageScale="1" pageWidth="827" pageHeight="1169" background="none" math="0" shadow="0">
            <root>
                <mxCell id="0"/>
                <mxCell id="1" parent="0"/>
                <mxCell id="5" value="" style="edgeStyle=none;html=1;fillColor=#d80073;strokeColor=#A50040;" parent="1" target="4" edge="1">
                    <mxGeometry relative="1" as="geometry">
                        <mxPoint x="296" y="125" as="sourcePoint"/>
                    </mxGeometry>
                </mxCell>
                <mxCell id="2" value="&lt;font style=&quot;font-size: 15px;&quot;&gt;PHP junior&lt;/font&gt;" style="rounded=1;whiteSpace=wrap;html=1;fillColor=#6a00ff;fontColor=#ffffff;strokeColor=#3700CC;" parent="1" vertex="1">
                    <mxGeometry x="221" y="65" width="150" height="60" as="geometry"/>
                </mxCell>
                <mxCell id="9" value="" style="edgeStyle=none;html=1;fillColor=#d80073;strokeColor=#A50040;" parent="1" source="4" target="8" edge="1">
                    <mxGeometry relative="1" as="geometry"/>
                </mxCell>
                <mxCell id="41" value="" style="edgeStyle=none;html=1;fontSize=15;fillColor=#d80073;strokeColor=#A50040;" parent="1" source="4" target="40" edge="1">
                    <mxGeometry relative="1" as="geometry"/>
                </mxCell>
                <mxCell id="81" style="edgeStyle=none;html=1;entryX=0;entryY=0.5;entryDx=0;entryDy=0;" edge="1" parent="1" source="4" target="16">
                    <mxGeometry relative="1" as="geometry"/>
                </mxCell>
                <mxCell id="4" value="&lt;font style=&quot;font-size: 15px;&quot;&gt;GIT&lt;/font&gt;" style="whiteSpace=wrap;html=1;rounded=1;strokeColor=#24CEF0;" parent="1" vertex="1">
                    <mxGeometry x="236" y="156" width="120" height="60" as="geometry"/>
                </mxCell>
                <mxCell id="11" value="" style="edgeStyle=none;html=1;fillColor=#d80073;strokeColor=#A50040;" parent="1" source="8" target="10" edge="1">
                    <mxGeometry relative="1" as="geometry">
                        <Array as="points"/>
                    </mxGeometry>
                </mxCell>
                <mxCell id="8" value="&lt;font style=&quot;font-size: 15px;&quot;&gt;PHP&amp;nbsp;&lt;/font&gt;" style="whiteSpace=wrap;html=1;rounded=1;strokeColor=#24CEF0;" parent="1" vertex="1">
                    <mxGeometry x="204" y="270" width="183" height="60" as="geometry"/>
                </mxCell>
                <mxCell id="13" value="" style="edgeStyle=none;html=1;fillColor=#d80073;strokeColor=#A50040;entryX=0.5;entryY=0;entryDx=0;entryDy=0;" parent="1" source="10" target="68" edge="1">
                    <mxGeometry relative="1" as="geometry">
                        <mxPoint x="297.04999999999995" y="484" as="targetPoint"/>
                    </mxGeometry>
                </mxCell>
                <mxCell id="10" value="&lt;span style=&quot;font-size: 15px;&quot;&gt;JSON, XML , API&lt;br&gt;&lt;/span&gt;" style="whiteSpace=wrap;html=1;rounded=1;strokeColor=#24CEF0;" parent="1" vertex="1">
                    <mxGeometry x="215" y="372" width="166" height="65" as="geometry"/>
                </mxCell>
                <mxCell id="15" value="" style="edgeStyle=none;html=1;fillColor=#d80073;strokeColor=#A50040;entryX=0.5;entryY=0;entryDx=0;entryDy=0;" parent="1" target="67" edge="1">
                    <mxGeometry relative="1" as="geometry">
                        <mxPoint x="298.9018691588785" y="544" as="sourcePoint"/>
                        <mxPoint x="301.0046728971963" y="589" as="targetPoint"/>
                    </mxGeometry>
                </mxCell>
                <mxCell id="25" value="" style="edgeStyle=none;html=1;fontSize=12;fillColor=#d80073;strokeColor=#A50040;" parent="1" source="16" target="24" edge="1">
                    <mxGeometry relative="1" as="geometry"/>
                </mxCell>
                <mxCell id="75" value="" style="edgeStyle=none;html=1;" edge="1" parent="1" source="16" target="74">
                    <mxGeometry relative="1" as="geometry"/>
                </mxCell>
                <mxCell id="16" value="&lt;span style=&quot;font-size: 15px;&quot;&gt;HTML&lt;/span&gt;" style="whiteSpace=wrap;html=1;rounded=1;strokeColor=#FF33FF;" parent="1" vertex="1">
                    <mxGeometry x="478" y="112" width="173" height="60" as="geometry"/>
                </mxCell>
                <mxCell id="27" value="" style="edgeStyle=none;html=1;fontSize=12;fillColor=#d80073;strokeColor=#A50040;" parent="1" source="24" target="26" edge="1">
                    <mxGeometry relative="1" as="geometry"/>
                </mxCell>
                <mxCell id="24" value="CSS" style="whiteSpace=wrap;html=1;rounded=1;strokeColor=#FF33FF;" parent="1" vertex="1">
                    <mxGeometry x="483" y="210" width="162" height="60" as="geometry"/>
                </mxCell>
                <mxCell id="29" value="" style="edgeStyle=none;html=1;fontSize=12;fillColor=#d80073;strokeColor=#A50040;" parent="1" source="26" target="28" edge="1">
                    <mxGeometry relative="1" as="geometry"/>
                </mxCell>
                <mxCell id="26" value="FLEXBOX" style="whiteSpace=wrap;html=1;rounded=1;strokeColor=#FF33FF;" parent="1" vertex="1">
                    <mxGeometry x="485.5" y="304" width="157" height="60" as="geometry"/>
                </mxCell>
                <mxCell id="66" value="" style="edgeStyle=none;html=1;" edge="1" parent="1" source="28" target="65">
                    <mxGeometry relative="1" as="geometry"/>
                </mxCell>
                <mxCell id="28" value="BOOTSTRAP" style="whiteSpace=wrap;html=1;rounded=1;strokeColor=#FF33FF;" parent="1" vertex="1">
                    <mxGeometry x="485.5" y="398" width="157" height="60" as="geometry"/>
                </mxCell>
                <mxCell id="43" value="" style="edgeStyle=none;html=1;fontSize=15;fillColor=#d80073;strokeColor=#A50040;" parent="1" source="40" target="42" edge="1">
                    <mxGeometry relative="1" as="geometry"/>
                </mxCell>
                <mxCell id="40" value="&lt;span style=&quot;font-size: 15px;&quot;&gt;Продвинутый GIT&lt;/span&gt;" style="whiteSpace=wrap;html=1;rounded=1;strokeColor=#99FF99;" parent="1" vertex="1">
                    <mxGeometry x="-1" y="156" width="120" height="60" as="geometry"/>
                </mxCell>
                <mxCell id="45" value="" style="edgeStyle=none;html=1;fontSize=15;fillColor=#d80073;strokeColor=#A50040;" parent="1" source="42" target="44" edge="1">
                    <mxGeometry relative="1" as="geometry"/>
                </mxCell>
                <mxCell id="42" value="LINUX" style="whiteSpace=wrap;html=1;rounded=1;strokeColor=#99FF99;" parent="1" vertex="1">
                    <mxGeometry x="-3" y="257" width="120" height="60" as="geometry"/>
                </mxCell>
                <mxCell id="48" value="" style="edgeStyle=none;html=1;fontSize=15;fillColor=#d80073;strokeColor=#A50040;" parent="1" source="44" target="47" edge="1">
                    <mxGeometry relative="1" as="geometry"/>
                </mxCell>
                <mxCell id="44" value="КОНТЕЙНИРИЗАЦИЯ" style="whiteSpace=wrap;html=1;rounded=1;strokeColor=#99FF99;" parent="1" vertex="1">
                    <mxGeometry x="-11.5" y="358" width="141" height="60" as="geometry"/>
                </mxCell>
                <mxCell id="47" value="CI/CD СБОРКА И ДЕПЛОЙ" style="whiteSpace=wrap;html=1;rounded=1;strokeColor=#99FF99;" parent="1" vertex="1">
                    <mxGeometry x="-1" y="461" width="120" height="60" as="geometry"/>
                </mxCell>
                <mxCell id="70" value="" style="edgeStyle=none;html=1;" edge="1" parent="1" source="65" target="69">
                    <mxGeometry relative="1" as="geometry"/>
                </mxCell>
                <mxCell id="65" value="SCSS" style="whiteSpace=wrap;html=1;rounded=1;strokeColor=#FF33FF;" vertex="1" parent="1">
                    <mxGeometry x="485.5" y="480" width="157" height="60" as="geometry"/>
                </mxCell>
                <mxCell id="79" value="" style="edgeStyle=none;html=1;" edge="1" parent="1" source="67" target="78">
                    <mxGeometry relative="1" as="geometry"/>
                </mxCell>
                <mxCell id="67" value="&lt;span style=&quot;font-size: 15px;&quot;&gt;MYSQL / SQL&lt;br&gt;&lt;/span&gt;" style="whiteSpace=wrap;html=1;rounded=1;strokeColor=#24CEF0;" vertex="1" parent="1">
                    <mxGeometry x="229.5" y="587" width="139" height="60" as="geometry"/>
                </mxCell>
                <mxCell id="68" value="&lt;span style=&quot;font-size: 15px;&quot;&gt;ООП PHP&lt;br&gt;&lt;/span&gt;" style="whiteSpace=wrap;html=1;rounded=1;strokeColor=#24CEF0;" vertex="1" parent="1">
                    <mxGeometry x="222.5" y="469" width="151" height="71" as="geometry"/>
                </mxCell>
                <mxCell id="73" value="" style="edgeStyle=none;html=1;" edge="1" parent="1" source="69" target="72">
                    <mxGeometry relative="1" as="geometry"/>
                </mxCell>
                <mxCell id="69" value="SASS" style="whiteSpace=wrap;html=1;rounded=1;strokeColor=#FF33FF;" vertex="1" parent="1">
                    <mxGeometry x="488" y="574" width="157" height="60" as="geometry"/>
                </mxCell>
                <mxCell id="77" value="" style="edgeStyle=none;html=1;" edge="1" parent="1" source="72" target="76">
                    <mxGeometry relative="1" as="geometry"/>
                </mxCell>
                <mxCell id="72" value="CSS GRID" style="whiteSpace=wrap;html=1;strokeColor=#FF33FF;rounded=1;" vertex="1" parent="1">
                    <mxGeometry x="487" y="675" width="159" height="60" as="geometry"/>
                </mxCell>
                <mxCell id="74" value="&lt;span style=&quot;font-size: 15px;&quot;&gt;FIGMA&lt;br&gt;&lt;/span&gt;" style="whiteSpace=wrap;html=1;rounded=1;strokeColor=#FF33FF;" vertex="1" parent="1">
                    <mxGeometry x="709" y="112" width="173" height="60" as="geometry"/>
                </mxCell>
                <mxCell id="80" value="" style="edgeStyle=none;html=1;" edge="1" parent="1" source="76" target="78">
                    <mxGeometry relative="1" as="geometry"/>
                </mxCell>
                <mxCell id="76" value="CSS GRID" style="whiteSpace=wrap;html=1;strokeColor=#FF33FF;rounded=1;" vertex="1" parent="1">
                    <mxGeometry x="424" y="811" width="159" height="60" as="geometry"/>
                </mxCell>
                <mxCell id="78" value="&lt;p style=&quot;line-height: 350%;&quot;&gt;Java Script&lt;/p&gt;" style="whiteSpace=wrap;html=1;strokeColor=#24CEF0;rounded=1;" vertex="1" parent="1">
                    <mxGeometry x="169" y="756" width="157" height="68" as="geometry"/>
                </mxCell>
            </root>
        </mxGraphModel>
    </diagram>
</mxfile>